<?xml version="1.0" encoding="utf-8"?><svg xml:space="preserve" viewBox="0 0 100 100" y="0" x="0" xmlns="http://www.w3.org/2000/svg" id="Layer_1" version="1.1" width="47px" height="47px" xmlns:xlink="http://www.w3.org/1999/xlink" style="width:100%;height:100%;background-size:initial;background-repeat-y:initial;background-repeat-x:initial;background-position-y:initial;background-position-x:initial;background-origin:initial;background-image:initial;background-color:rgb(255, 255, 255);background-clip:initial;background-attachment:initial;animation-play-state:paused" ><g class="ldl-scale" style="transform-origin:50% 50%;transform:rotate(0deg) scale(0.8, 0.8);animation-play-state:paused" ><path fill="#323232" d="M50 25.93c.53 0 1.061.213 1.451.638L84.612 52.41h5.916c1.713 0 2.608-2.036 1.451-3.298L51.451 15.235A1.961 1.961 0 0 0 50 14.597c-.53 0-1.061.213-1.451.638L8.021 49.112c-1.157 1.262-.262 3.298 1.451 3.298h5.916l33.161-25.842c.39-.425.921-.638 1.451-.638z" id="XMLID_189_" style="fill:rgb(50, 50, 50);animation-play-state:paused" ></path>
<path fill="#cccccb" d="M50 58.923c.53 0 1.061.213 1.451.638l33.161 25.842h5.916c1.713 0 2.608-2.036 1.451-3.298L51.451 48.228A1.961 1.961 0 0 0 50 47.59c-.53 0-1.061.213-1.451.638L8.021 82.104c-1.157 1.262-.262 3.298 1.451 3.298h5.916L48.549 59.56c.39-.424.921-.637 1.451-.637z" id="XMLID_188_" style="fill:rgb(204, 204, 203);animation-play-state:paused" ></path>
<metadata xmlns:d="https://loading.io/stock/" style="animation-play-state:paused" ><d:name style="animation-play-state:paused" >up</d:name>


<d:tags style="animation-play-state:paused" >north,upload,top,direction,way,dart,chevron,up,arrow</d:tags>


<d:license style="animation-play-state:paused" >by</d:license>


<d:slug style="animation-play-state:paused" >iei9vt</d:slug></metadata></g><!-- generated by https://loading.io/ --></svg>